<?xml version="1.0" encoding="utf-8" standalone="no"?>
<!DOCTYPE svg PUBLIC "-//W3C//DTD SVG 1.1//EN"
  "http://www.w3.org/Graphics/SVG/1.1/DTD/svg11.dtd">
<svg xmlns:xlink="http://www.w3.org/1999/xlink" width="576pt" height="288pt" viewBox="0 0 576 288" xmlns="http://www.w3.org/2000/svg" version="1.1">
 <metadata>
  <rdf:RDF xmlns:dc="http://purl.org/dc/elements/1.1/" xmlns:cc="http://creativecommons.org/ns#" xmlns:rdf="http://www.w3.org/1999/02/22-rdf-syntax-ns#">
   <cc:Work>
    <dc:type rdf:resource="http://purl.org/dc/dcmitype/StillImage"/>
    <dc:date>2025-10-16T00:36:52.838089</dc:date>
    <dc:format>image/svg+xml</dc:format>
    <dc:creator>
     <cc:Agent>
      <dc:title>Matplotlib v3.8.2, https://matplotlib.org/</dc:title>
     </cc:Agent>
    </dc:creator>
   </cc:Work>
  </rdf:RDF>
 </metadata>
 <defs>
  <style type="text/css">*{stroke-linejoin: round; stroke-linecap: butt}</style>
 </defs>
 <g id="figure_1">
  <g id="patch_1">
   <path d="M 0 288 
L 576 288 
L 576 0 
L 0 0 
L 0 288 
z
" style="fill: none"/>
  </g>
  <g id="axes_1">
   <g id="patch_2">
    <path d="M 60.69125 221.688109 
L 284.295 221.688109 
L 284.295 27.36 
L 60.69125 27.36 
L 60.69125 221.688109 
z
" style="fill: none"/>
   </g>
   <g id="patch_3">
    <path d="M 70.855057 221.688109 
L 128.933953 221.688109 
L 128.933953 49.849366 
L 70.855057 49.849366 
z
" clip-path="url(#pd470c0f9a0)" style="fill: #228b22; opacity: 0.7"/>
   </g>
   <g id="patch_4">
    <path d="M 143.453677 221.688109 
L 201.532573 221.688109 
L 201.532573 52.249251 
L 143.453677 52.249251 
z
" clip-path="url(#pd470c0f9a0)" style="fill: #9acd32; opacity: 0.7"/>
   </g>
   <g id="patch_5">
    <path d="M 216.052297 221.688109 
L 274.131193 221.688109 
L 274.131193 63.618449 
L 216.052297 63.618449 
z
" clip-path="url(#pd470c0f9a0)" style="fill: #a0522d; opacity: 0.7"/>
   </g>
   <g id="matplotlib.axis_1">
    <g id="xtick_1">
     <g id="line2d_1">
      <defs>
       <path id="md876d4c7a8" d="M 0 0 
L 0 3.5 
" style="stroke: #000000; stroke-width: 0.8"/>
      </defs>
      <g>
       <use xlink:href="#md876d4c7a8" x="99.894505" y="221.688109" style="stroke: #000000; stroke-width: 0.8"/>
      </g>
     </g>
     <g id="text_1">
      <!-- w/ symmetry (K=4) -->
      <g transform="translate(58.332378 258.704145) rotate(-15) scale(0.11 -0.11)">
       <defs>
        <path id="TimesNewRomanPSMT-77" d="M 41 2863 
L 1241 2863 
L 1241 2747 
Q 1075 2734 1023 2687 
Q 972 2641 972 2553 
Q 972 2456 1025 2319 
L 1638 672 
L 2253 2013 
L 2091 2434 
Q 2016 2622 1894 2694 
Q 1825 2738 1638 2747 
L 1638 2863 
L 3000 2863 
L 3000 2747 
Q 2775 2738 2681 2666 
Q 2619 2616 2619 2506 
Q 2619 2444 2644 2378 
L 3294 734 
L 3897 2319 
Q 3959 2488 3959 2588 
Q 3959 2647 3898 2694 
Q 3838 2741 3659 2747 
L 3659 2863 
L 4563 2863 
L 4563 2747 
Q 4291 2706 4163 2378 
L 3206 -88 
L 3078 -88 
L 2363 1741 
L 1528 -88 
L 1413 -88 
L 494 2319 
Q 403 2547 315 2626 
Q 228 2706 41 2747 
L 41 2863 
z
" transform="scale(0.015625)"/>
        <path id="TimesNewRomanPSMT-2f" d="M 1794 4444 
L 259 -88 
L 9 -88 
L 1544 4444 
L 1794 4444 
z
" transform="scale(0.015625)"/>
        <path id="TimesNewRomanPSMT-20" transform="scale(0.015625)"/>
        <path id="TimesNewRomanPSMT-73" d="M 2050 2947 
L 2050 1972 
L 1947 1972 
Q 1828 2431 1642 2597 
Q 1456 2763 1169 2763 
Q 950 2763 815 2647 
Q 681 2531 681 2391 
Q 681 2216 781 2091 
Q 878 1963 1175 1819 
L 1631 1597 
Q 2266 1288 2266 781 
Q 2266 391 1970 151 
Q 1675 -88 1309 -88 
Q 1047 -88 709 6 
Q 606 38 541 38 
Q 469 38 428 -44 
L 325 -44 
L 325 978 
L 428 978 
Q 516 541 762 319 
Q 1009 97 1316 97 
Q 1531 97 1667 223 
Q 1803 350 1803 528 
Q 1803 744 1651 891 
Q 1500 1038 1047 1263 
Q 594 1488 453 1669 
Q 313 1847 313 2119 
Q 313 2472 555 2709 
Q 797 2947 1181 2947 
Q 1350 2947 1591 2875 
Q 1750 2828 1803 2828 
Q 1853 2828 1881 2850 
Q 1909 2872 1947 2947 
L 2050 2947 
z
" transform="scale(0.015625)"/>
        <path id="TimesNewRomanPSMT-79" d="M 38 2863 
L 1372 2863 
L 1372 2747 
L 1306 2747 
Q 1166 2747 1095 2686 
Q 1025 2625 1025 2534 
Q 1025 2413 1128 2197 
L 1825 753 
L 2466 2334 
Q 2519 2463 2519 2588 
Q 2519 2644 2497 2672 
Q 2472 2706 2419 2726 
Q 2366 2747 2231 2747 
L 2231 2863 
L 3163 2863 
L 3163 2747 
Q 3047 2734 2984 2696 
Q 2922 2659 2847 2556 
Q 2819 2513 2741 2316 
L 1575 -541 
Q 1406 -956 1132 -1168 
Q 859 -1381 606 -1381 
Q 422 -1381 303 -1275 
Q 184 -1169 184 -1031 
Q 184 -900 270 -820 
Q 356 -741 506 -741 
Q 609 -741 788 -809 
Q 913 -856 944 -856 
Q 1038 -856 1148 -759 
Q 1259 -663 1372 -384 
L 1575 113 
L 547 2272 
Q 500 2369 397 2513 
Q 319 2622 269 2659 
Q 197 2709 38 2747 
L 38 2863 
z
" transform="scale(0.015625)"/>
        <path id="TimesNewRomanPSMT-6d" d="M 1050 2338 
Q 1363 2650 1419 2697 
Q 1559 2816 1721 2881 
Q 1884 2947 2044 2947 
Q 2313 2947 2506 2790 
Q 2700 2634 2766 2338 
Q 3088 2713 3309 2830 
Q 3531 2947 3766 2947 
Q 3994 2947 4170 2830 
Q 4347 2713 4450 2447 
Q 4519 2266 4519 1878 
L 4519 647 
Q 4519 378 4559 278 
Q 4591 209 4675 161 
Q 4759 113 4950 113 
L 4950 0 
L 3538 0 
L 3538 113 
L 3597 113 
Q 3781 113 3884 184 
Q 3956 234 3988 344 
Q 4000 397 4000 647 
L 4000 1878 
Q 4000 2228 3916 2372 
Q 3794 2572 3525 2572 
Q 3359 2572 3192 2489 
Q 3025 2406 2788 2181 
L 2781 2147 
L 2788 2013 
L 2788 647 
Q 2788 353 2820 281 
Q 2853 209 2943 161 
Q 3034 113 3253 113 
L 3253 0 
L 1806 0 
L 1806 113 
Q 2044 113 2133 169 
Q 2222 225 2256 338 
Q 2272 391 2272 647 
L 2272 1878 
Q 2272 2228 2169 2381 
Q 2031 2581 1784 2581 
Q 1616 2581 1450 2491 
Q 1191 2353 1050 2181 
L 1050 647 
Q 1050 366 1089 281 
Q 1128 197 1204 155 
Q 1281 113 1516 113 
L 1516 0 
L 100 0 
L 100 113 
Q 297 113 375 155 
Q 453 197 493 289 
Q 534 381 534 647 
L 534 1741 
Q 534 2213 506 2350 
Q 484 2453 437 2492 
Q 391 2531 309 2531 
Q 222 2531 100 2484 
L 53 2597 
L 916 2947 
L 1050 2947 
L 1050 2338 
z
" transform="scale(0.015625)"/>
        <path id="TimesNewRomanPSMT-65" d="M 681 1784 
Q 678 1147 991 784 
Q 1303 422 1725 422 
Q 2006 422 2214 576 
Q 2422 731 2563 1106 
L 2659 1044 
Q 2594 616 2278 264 
Q 1963 -88 1488 -88 
Q 972 -88 605 314 
Q 238 716 238 1394 
Q 238 2128 614 2539 
Q 991 2950 1559 2950 
Q 2041 2950 2350 2633 
Q 2659 2316 2659 1784 
L 681 1784 
z
M 681 1966 
L 2006 1966 
Q 1991 2241 1941 2353 
Q 1863 2528 1708 2628 
Q 1553 2728 1384 2728 
Q 1125 2728 920 2526 
Q 716 2325 681 1966 
z
" transform="scale(0.015625)"/>
        <path id="TimesNewRomanPSMT-74" d="M 1031 3803 
L 1031 2863 
L 1700 2863 
L 1700 2644 
L 1031 2644 
L 1031 788 
Q 1031 509 1111 412 
Q 1191 316 1316 316 
Q 1419 316 1516 380 
Q 1613 444 1666 569 
L 1788 569 
Q 1678 263 1478 108 
Q 1278 -47 1066 -47 
Q 922 -47 784 33 
Q 647 113 581 261 
Q 516 409 516 719 
L 516 2644 
L 63 2644 
L 63 2747 
Q 234 2816 414 2980 
Q 594 3144 734 3369 
Q 806 3488 934 3803 
L 1031 3803 
z
" transform="scale(0.015625)"/>
        <path id="TimesNewRomanPSMT-72" d="M 1038 2947 
L 1038 2303 
Q 1397 2947 1775 2947 
Q 1947 2947 2059 2842 
Q 2172 2738 2172 2600 
Q 2172 2478 2090 2393 
Q 2009 2309 1897 2309 
Q 1788 2309 1652 2417 
Q 1516 2525 1450 2525 
Q 1394 2525 1328 2463 
Q 1188 2334 1038 2041 
L 1038 669 
Q 1038 431 1097 309 
Q 1138 225 1241 169 
Q 1344 113 1538 113 
L 1538 0 
L 72 0 
L 72 113 
Q 291 113 397 181 
Q 475 231 506 341 
Q 522 394 522 644 
L 522 1753 
Q 522 2253 501 2348 
Q 481 2444 426 2487 
Q 372 2531 291 2531 
Q 194 2531 72 2484 
L 41 2597 
L 906 2947 
L 1038 2947 
z
" transform="scale(0.015625)"/>
        <path id="TimesNewRomanPSMT-28" d="M 1988 -1253 
L 1988 -1369 
Q 1516 -1131 1200 -813 
Q 750 -359 506 256 
Q 263 872 263 1534 
Q 263 2503 741 3301 
Q 1219 4100 1988 4444 
L 1988 4313 
Q 1603 4100 1356 3731 
Q 1109 3363 987 2797 
Q 866 2231 866 1616 
Q 866 947 969 400 
Q 1050 -31 1165 -292 
Q 1281 -553 1476 -793 
Q 1672 -1034 1988 -1253 
z
" transform="scale(0.015625)"/>
        <path id="TimesNewRomanPSMT-4b" d="M 1913 2350 
L 3475 797 
Q 3859 413 4131 273 
Q 4403 134 4675 116 
L 4675 0 
L 2659 0 
L 2659 116 
Q 2841 116 2920 177 
Q 3000 238 3000 313 
Q 3000 388 2970 447 
Q 2941 506 2775 669 
L 1313 2116 
L 1313 750 
Q 1313 428 1353 325 
Q 1384 247 1484 191 
Q 1619 116 1769 116 
L 1913 116 
L 1913 0 
L 106 0 
L 106 116 
L 256 116 
Q 519 116 638 269 
Q 713 369 713 750 
L 713 3488 
Q 713 3809 672 3916 
Q 641 3991 544 4047 
Q 406 4122 256 4122 
L 106 4122 
L 106 4238 
L 1913 4238 
L 1913 4122 
L 1769 4122 
Q 1622 4122 1484 4050 
Q 1388 4000 1350 3900 
Q 1313 3800 1313 3488 
L 1313 2191 
Q 1375 2250 1741 2588 
Q 2669 3438 2863 3722 
Q 2947 3847 2947 3941 
Q 2947 4013 2881 4067 
Q 2816 4122 2659 4122 
L 2563 4122 
L 2563 4238 
L 4119 4238 
L 4119 4122 
Q 3981 4119 3868 4084 
Q 3756 4050 3593 3951 
Q 3431 3853 3194 3634 
Q 3125 3572 2559 2994 
L 1913 2350 
z
" transform="scale(0.015625)"/>
        <path id="TimesNewRomanPSMT-3d" d="M 116 2759 
L 3488 2759 
L 3488 2503 
L 116 2503 
L 116 2759 
z
M 116 1741 
L 3488 1741 
L 3488 1484 
L 116 1484 
L 116 1741 
z
" transform="scale(0.015625)"/>
        <path id="TimesNewRomanPSMT-34" d="M 2978 1563 
L 2978 1119 
L 2409 1119 
L 2409 0 
L 1894 0 
L 1894 1119 
L 100 1119 
L 100 1519 
L 2066 4325 
L 2409 4325 
L 2409 1563 
L 2978 1563 
z
M 1894 1563 
L 1894 3666 
L 406 1563 
L 1894 1563 
z
" transform="scale(0.015625)"/>
        <path id="TimesNewRomanPSMT-29" d="M 144 4313 
L 144 4444 
Q 619 4209 934 3891 
Q 1381 3434 1625 2820 
Q 1869 2206 1869 1541 
Q 1869 572 1392 -226 
Q 916 -1025 144 -1369 
L 144 -1253 
Q 528 -1038 776 -670 
Q 1025 -303 1145 264 
Q 1266 831 1266 1447 
Q 1266 2113 1163 2663 
Q 1084 3094 967 3353 
Q 850 3613 656 3853 
Q 463 4094 144 4313 
z
" transform="scale(0.015625)"/>
       </defs>
       <use xlink:href="#TimesNewRomanPSMT-77"/>
       <use xlink:href="#TimesNewRomanPSMT-2f" x="72.216797"/>
       <use xlink:href="#TimesNewRomanPSMT-20" x="100"/>
       <use xlink:href="#TimesNewRomanPSMT-73" x="125"/>
       <use xlink:href="#TimesNewRomanPSMT-79" x="163.916016"/>
       <use xlink:href="#TimesNewRomanPSMT-6d" x="213.916016"/>
       <use xlink:href="#TimesNewRomanPSMT-6d" x="291.699219"/>
       <use xlink:href="#TimesNewRomanPSMT-65" x="369.482422"/>
       <use xlink:href="#TimesNewRomanPSMT-74" x="413.867188"/>
       <use xlink:href="#TimesNewRomanPSMT-72" x="441.650391"/>
       <use xlink:href="#TimesNewRomanPSMT-79" x="474.951172"/>
       <use xlink:href="#TimesNewRomanPSMT-20" x="524.951172"/>
       <use xlink:href="#TimesNewRomanPSMT-28" x="549.951172"/>
       <use xlink:href="#TimesNewRomanPSMT-4b" x="583.251953"/>
       <use xlink:href="#TimesNewRomanPSMT-3d" x="655.46875"/>
       <use xlink:href="#TimesNewRomanPSMT-34" x="711.865234"/>
       <use xlink:href="#TimesNewRomanPSMT-29" x="761.865234"/>
      </g>
     </g>
    </g>
    <g id="xtick_2">
     <g id="line2d_2">
      <g>
       <use xlink:href="#md876d4c7a8" x="172.493125" y="221.688109" style="stroke: #000000; stroke-width: 0.8"/>
      </g>
     </g>
     <g id="text_2">
      <!-- w/ symmetry (K=1) -->
      <g transform="translate(130.930998 258.704145) rotate(-15) scale(0.11 -0.11)">
       <defs>
        <path id="TimesNewRomanPSMT-31" d="M 750 3822 
L 1781 4325 
L 1884 4325 
L 1884 747 
Q 1884 391 1914 303 
Q 1944 216 2037 169 
Q 2131 122 2419 116 
L 2419 0 
L 825 0 
L 825 116 
Q 1125 122 1212 167 
Q 1300 213 1334 289 
Q 1369 366 1369 747 
L 1369 3034 
Q 1369 3497 1338 3628 
Q 1316 3728 1258 3775 
Q 1200 3822 1119 3822 
Q 1003 3822 797 3725 
L 750 3822 
z
" transform="scale(0.015625)"/>
       </defs>
       <use xlink:href="#TimesNewRomanPSMT-77"/>
       <use xlink:href="#TimesNewRomanPSMT-2f" x="72.216797"/>
       <use xlink:href="#TimesNewRomanPSMT-20" x="100"/>
       <use xlink:href="#TimesNewRomanPSMT-73" x="125"/>
       <use xlink:href="#TimesNewRomanPSMT-79" x="163.916016"/>
       <use xlink:href="#TimesNewRomanPSMT-6d" x="213.916016"/>
       <use xlink:href="#TimesNewRomanPSMT-6d" x="291.699219"/>
       <use xlink:href="#TimesNewRomanPSMT-65" x="369.482422"/>
       <use xlink:href="#TimesNewRomanPSMT-74" x="413.867188"/>
       <use xlink:href="#TimesNewRomanPSMT-72" x="441.650391"/>
       <use xlink:href="#TimesNewRomanPSMT-79" x="474.951172"/>
       <use xlink:href="#TimesNewRomanPSMT-20" x="524.951172"/>
       <use xlink:href="#TimesNewRomanPSMT-28" x="549.951172"/>
       <use xlink:href="#TimesNewRomanPSMT-4b" x="583.251953"/>
       <use xlink:href="#TimesNewRomanPSMT-3d" x="655.46875"/>
       <use xlink:href="#TimesNewRomanPSMT-31" x="711.865234"/>
       <use xlink:href="#TimesNewRomanPSMT-29" x="761.865234"/>
      </g>
     </g>
    </g>
    <g id="xtick_3">
     <g id="line2d_3">
      <g>
       <use xlink:href="#md876d4c7a8" x="245.091745" y="221.688109" style="stroke: #000000; stroke-width: 0.8"/>
      </g>
     </g>
     <g id="text_3">
      <!-- w/o symmetry -->
      <g transform="translate(215.228112 252.434941) rotate(-15) scale(0.11 -0.11)">
       <defs>
        <path id="TimesNewRomanPSMT-6f" d="M 1600 2947 
Q 2250 2947 2644 2453 
Q 2978 2031 2978 1484 
Q 2978 1100 2793 706 
Q 2609 313 2286 112 
Q 1963 -88 1566 -88 
Q 919 -88 538 428 
Q 216 863 216 1403 
Q 216 1797 411 2186 
Q 606 2575 925 2761 
Q 1244 2947 1600 2947 
z
M 1503 2744 
Q 1338 2744 1170 2645 
Q 1003 2547 900 2300 
Q 797 2053 797 1666 
Q 797 1041 1045 587 
Q 1294 134 1700 134 
Q 2003 134 2200 384 
Q 2397 634 2397 1244 
Q 2397 2006 2069 2444 
Q 1847 2744 1503 2744 
z
" transform="scale(0.015625)"/>
       </defs>
       <use xlink:href="#TimesNewRomanPSMT-77"/>
       <use xlink:href="#TimesNewRomanPSMT-2f" x="72.216797"/>
       <use xlink:href="#TimesNewRomanPSMT-6f" x="100"/>
       <use xlink:href="#TimesNewRomanPSMT-20" x="150"/>
       <use xlink:href="#TimesNewRomanPSMT-73" x="175"/>
       <use xlink:href="#TimesNewRomanPSMT-79" x="213.916016"/>
       <use xlink:href="#TimesNewRomanPSMT-6d" x="263.916016"/>
       <use xlink:href="#TimesNewRomanPSMT-6d" x="341.699219"/>
       <use xlink:href="#TimesNewRomanPSMT-65" x="419.482422"/>
       <use xlink:href="#TimesNewRomanPSMT-74" x="463.867188"/>
       <use xlink:href="#TimesNewRomanPSMT-72" x="491.650391"/>
       <use xlink:href="#TimesNewRomanPSMT-79" x="524.951172"/>
      </g>
     </g>
    </g>
   </g>
   <g id="matplotlib.axis_2">
    <g id="ytick_1">
     <g id="line2d_4">
      <defs>
       <path id="mb5331f9bd9" d="M 0 0 
L -3.5 0 
" style="stroke: #000000; stroke-width: 0.8"/>
      </defs>
      <g>
       <use xlink:href="#mb5331f9bd9" x="60.69125" y="221.688109" style="stroke: #000000; stroke-width: 0.8"/>
      </g>
     </g>
     <g id="text_4">
      <!-- 0.00 -->
      <g transform="translate(34.44125 225.507171) scale(0.11 -0.11)">
       <defs>
        <path id="TimesNewRomanPSMT-30" d="M 231 2094 
Q 231 2819 450 3342 
Q 669 3866 1031 4122 
Q 1313 4325 1613 4325 
Q 2100 4325 2488 3828 
Q 2972 3213 2972 2159 
Q 2972 1422 2759 906 
Q 2547 391 2217 158 
Q 1888 -75 1581 -75 
Q 975 -75 572 641 
Q 231 1244 231 2094 
z
M 844 2016 
Q 844 1141 1059 588 
Q 1238 122 1591 122 
Q 1759 122 1940 273 
Q 2122 425 2216 781 
Q 2359 1319 2359 2297 
Q 2359 3022 2209 3506 
Q 2097 3866 1919 4016 
Q 1791 4119 1609 4119 
Q 1397 4119 1231 3928 
Q 1006 3669 925 3112 
Q 844 2556 844 2016 
z
" transform="scale(0.015625)"/>
        <path id="TimesNewRomanPSMT-2e" d="M 800 606 
Q 947 606 1047 504 
Q 1147 403 1147 259 
Q 1147 116 1045 14 
Q 944 -88 800 -88 
Q 656 -88 554 14 
Q 453 116 453 259 
Q 453 406 554 506 
Q 656 606 800 606 
z
" transform="scale(0.015625)"/>
       </defs>
       <use xlink:href="#TimesNewRomanPSMT-30"/>
       <use xlink:href="#TimesNewRomanPSMT-2e" x="50"/>
       <use xlink:href="#TimesNewRomanPSMT-30" x="75"/>
       <use xlink:href="#TimesNewRomanPSMT-30" x="125"/>
      </g>
     </g>
    </g>
    <g id="ytick_2">
     <g id="line2d_5">
      <g>
       <use xlink:href="#mb5331f9bd9" x="60.69125" y="178.127191" style="stroke: #000000; stroke-width: 0.8"/>
      </g>
     </g>
     <g id="text_5">
      <!-- 0.05 -->
      <g transform="translate(34.44125 181.946254) scale(0.11 -0.11)">
       <defs>
        <path id="TimesNewRomanPSMT-35" d="M 2778 4238 
L 2534 3706 
L 1259 3706 
L 981 3138 
Q 1809 3016 2294 2522 
Q 2709 2097 2709 1522 
Q 2709 1188 2573 903 
Q 2438 619 2231 419 
Q 2025 219 1772 97 
Q 1413 -75 1034 -75 
Q 653 -75 479 54 
Q 306 184 306 341 
Q 306 428 378 495 
Q 450 563 559 563 
Q 641 563 702 538 
Q 763 513 909 409 
Q 1144 247 1384 247 
Q 1750 247 2026 523 
Q 2303 800 2303 1197 
Q 2303 1581 2056 1914 
Q 1809 2247 1375 2428 
Q 1034 2569 447 2591 
L 1259 4238 
L 2778 4238 
z
" transform="scale(0.015625)"/>
       </defs>
       <use xlink:href="#TimesNewRomanPSMT-30"/>
       <use xlink:href="#TimesNewRomanPSMT-2e" x="50"/>
       <use xlink:href="#TimesNewRomanPSMT-30" x="75"/>
       <use xlink:href="#TimesNewRomanPSMT-35" x="125"/>
      </g>
     </g>
    </g>
    <g id="ytick_3">
     <g id="line2d_6">
      <g>
       <use xlink:href="#mb5331f9bd9" x="60.69125" y="134.566274" style="stroke: #000000; stroke-width: 0.8"/>
      </g>
     </g>
     <g id="text_6">
      <!-- 0.10 -->
      <g transform="translate(34.44125 138.385336) scale(0.11 -0.11)">
       <use xlink:href="#TimesNewRomanPSMT-30"/>
       <use xlink:href="#TimesNewRomanPSMT-2e" x="50"/>
       <use xlink:href="#TimesNewRomanPSMT-31" x="75"/>
       <use xlink:href="#TimesNewRomanPSMT-30" x="125"/>
      </g>
     </g>
    </g>
    <g id="ytick_4">
     <g id="line2d_7">
      <g>
       <use xlink:href="#mb5331f9bd9" x="60.69125" y="91.005356" style="stroke: #000000; stroke-width: 0.8"/>
      </g>
     </g>
     <g id="text_7">
      <!-- 0.15 -->
      <g transform="translate(34.44125 94.824419) scale(0.11 -0.11)">
       <use xlink:href="#TimesNewRomanPSMT-30"/>
       <use xlink:href="#TimesNewRomanPSMT-2e" x="50"/>
       <use xlink:href="#TimesNewRomanPSMT-31" x="75"/>
       <use xlink:href="#TimesNewRomanPSMT-35" x="125"/>
      </g>
     </g>
    </g>
    <g id="ytick_5">
     <g id="line2d_8">
      <g>
       <use xlink:href="#mb5331f9bd9" x="60.69125" y="47.444438" style="stroke: #000000; stroke-width: 0.8"/>
      </g>
     </g>
     <g id="text_8">
      <!-- 0.20 -->
      <g transform="translate(34.44125 51.263501) scale(0.11 -0.11)">
       <defs>
        <path id="TimesNewRomanPSMT-32" d="M 2934 816 
L 2638 0 
L 138 0 
L 138 116 
Q 1241 1122 1691 1759 
Q 2141 2397 2141 2925 
Q 2141 3328 1894 3587 
Q 1647 3847 1303 3847 
Q 991 3847 742 3664 
Q 494 3481 375 3128 
L 259 3128 
Q 338 3706 661 4015 
Q 984 4325 1469 4325 
Q 1984 4325 2329 3994 
Q 2675 3663 2675 3213 
Q 2675 2891 2525 2569 
Q 2294 2063 1775 1497 
Q 997 647 803 472 
L 1909 472 
Q 2247 472 2383 497 
Q 2519 522 2628 598 
Q 2738 675 2819 816 
L 2934 816 
z
" transform="scale(0.015625)"/>
       </defs>
       <use xlink:href="#TimesNewRomanPSMT-30"/>
       <use xlink:href="#TimesNewRomanPSMT-2e" x="50"/>
       <use xlink:href="#TimesNewRomanPSMT-32" x="75"/>
       <use xlink:href="#TimesNewRomanPSMT-30" x="125"/>
      </g>
     </g>
    </g>
    <g id="text_9">
     <!-- Interval Prober Val Accuracy (%) -->
     <g transform="translate(27.636094 211.39757) rotate(-90) scale(0.13 -0.13)">
      <defs>
       <path id="TimesNewRomanPSMT-49" d="M 1975 116 
L 1975 0 
L 159 0 
L 159 116 
L 309 116 
Q 572 116 691 269 
Q 766 369 766 750 
L 766 3488 
Q 766 3809 725 3913 
Q 694 3991 597 4047 
Q 459 4122 309 4122 
L 159 4122 
L 159 4238 
L 1975 4238 
L 1975 4122 
L 1822 4122 
Q 1563 4122 1444 3969 
Q 1366 3869 1366 3488 
L 1366 750 
Q 1366 428 1406 325 
Q 1438 247 1538 191 
Q 1672 116 1822 116 
L 1975 116 
z
" transform="scale(0.015625)"/>
       <path id="TimesNewRomanPSMT-6e" d="M 1034 2341 
Q 1538 2947 1994 2947 
Q 2228 2947 2397 2830 
Q 2566 2713 2666 2444 
Q 2734 2256 2734 1869 
L 2734 647 
Q 2734 375 2778 278 
Q 2813 200 2889 156 
Q 2966 113 3172 113 
L 3172 0 
L 1756 0 
L 1756 113 
L 1816 113 
Q 2016 113 2095 173 
Q 2175 234 2206 353 
Q 2219 400 2219 647 
L 2219 1819 
Q 2219 2209 2117 2386 
Q 2016 2563 1775 2563 
Q 1403 2563 1034 2156 
L 1034 647 
Q 1034 356 1069 288 
Q 1113 197 1189 155 
Q 1266 113 1500 113 
L 1500 0 
L 84 0 
L 84 113 
L 147 113 
Q 366 113 442 223 
Q 519 334 519 647 
L 519 1709 
Q 519 2225 495 2337 
Q 472 2450 423 2490 
Q 375 2531 294 2531 
Q 206 2531 84 2484 
L 38 2597 
L 900 2947 
L 1034 2947 
L 1034 2341 
z
" transform="scale(0.015625)"/>
       <path id="TimesNewRomanPSMT-76" d="M 53 2863 
L 1400 2863 
L 1400 2747 
L 1313 2747 
Q 1191 2747 1127 2687 
Q 1063 2628 1063 2528 
Q 1063 2419 1128 2269 
L 1794 688 
L 2463 2328 
Q 2534 2503 2534 2594 
Q 2534 2638 2509 2666 
Q 2475 2713 2422 2730 
Q 2369 2747 2206 2747 
L 2206 2863 
L 3141 2863 
L 3141 2747 
Q 2978 2734 2916 2681 
Q 2806 2588 2719 2369 
L 1703 -88 
L 1575 -88 
L 553 2328 
Q 484 2497 421 2570 
Q 359 2644 263 2694 
Q 209 2722 53 2747 
L 53 2863 
z
" transform="scale(0.015625)"/>
       <path id="TimesNewRomanPSMT-61" d="M 1822 413 
Q 1381 72 1269 19 
Q 1100 -59 909 -59 
Q 613 -59 420 144 
Q 228 347 228 678 
Q 228 888 322 1041 
Q 450 1253 767 1440 
Q 1084 1628 1822 1897 
L 1822 2009 
Q 1822 2438 1686 2597 
Q 1550 2756 1291 2756 
Q 1094 2756 978 2650 
Q 859 2544 859 2406 
L 866 2225 
Q 866 2081 792 2003 
Q 719 1925 600 1925 
Q 484 1925 411 2006 
Q 338 2088 338 2228 
Q 338 2497 613 2722 
Q 888 2947 1384 2947 
Q 1766 2947 2009 2819 
Q 2194 2722 2281 2516 
Q 2338 2381 2338 1966 
L 2338 994 
Q 2338 584 2353 492 
Q 2369 400 2405 369 
Q 2441 338 2488 338 
Q 2538 338 2575 359 
Q 2641 400 2828 588 
L 2828 413 
Q 2478 -56 2159 -56 
Q 2006 -56 1915 50 
Q 1825 156 1822 413 
z
M 1822 616 
L 1822 1706 
Q 1350 1519 1213 1441 
Q 966 1303 859 1153 
Q 753 1003 753 825 
Q 753 600 887 451 
Q 1022 303 1197 303 
Q 1434 303 1822 616 
z
" transform="scale(0.015625)"/>
       <path id="TimesNewRomanPSMT-6c" d="M 1184 4444 
L 1184 647 
Q 1184 378 1223 290 
Q 1263 203 1344 158 
Q 1425 113 1647 113 
L 1647 0 
L 244 0 
L 244 113 
Q 441 113 512 153 
Q 584 194 625 287 
Q 666 381 666 647 
L 666 3247 
Q 666 3731 644 3842 
Q 622 3953 573 3993 
Q 525 4034 450 4034 
Q 369 4034 244 3984 
L 191 4094 
L 1044 4444 
L 1184 4444 
z
" transform="scale(0.015625)"/>
       <path id="TimesNewRomanPSMT-50" d="M 1313 1984 
L 1313 750 
Q 1313 350 1400 253 
Q 1519 116 1759 116 
L 1922 116 
L 1922 0 
L 106 0 
L 106 116 
L 266 116 
Q 534 116 650 291 
Q 713 388 713 750 
L 713 3488 
Q 713 3888 628 3984 
Q 506 4122 266 4122 
L 106 4122 
L 106 4238 
L 1659 4238 
Q 2228 4238 2556 4120 
Q 2884 4003 3109 3725 
Q 3334 3447 3334 3066 
Q 3334 2547 2992 2222 
Q 2650 1897 2025 1897 
Q 1872 1897 1694 1919 
Q 1516 1941 1313 1984 
z
M 1313 2163 
Q 1478 2131 1606 2115 
Q 1734 2100 1825 2100 
Q 2150 2100 2386 2351 
Q 2622 2603 2622 3003 
Q 2622 3278 2509 3514 
Q 2397 3750 2190 3867 
Q 1984 3984 1722 3984 
Q 1563 3984 1313 3925 
L 1313 2163 
z
" transform="scale(0.015625)"/>
       <path id="TimesNewRomanPSMT-62" d="M 984 2369 
Q 1400 2947 1881 2947 
Q 2322 2947 2650 2570 
Q 2978 2194 2978 1541 
Q 2978 778 2472 313 
Q 2038 -88 1503 -88 
Q 1253 -88 995 3 
Q 738 94 469 275 
L 469 3241 
Q 469 3728 445 3840 
Q 422 3953 372 3993 
Q 322 4034 247 4034 
Q 159 4034 28 3984 
L -16 4094 
L 844 4444 
L 984 4444 
L 984 2369 
z
M 984 2169 
L 984 456 
Q 1144 300 1314 220 
Q 1484 141 1663 141 
Q 1947 141 2192 453 
Q 2438 766 2438 1363 
Q 2438 1913 2192 2208 
Q 1947 2503 1634 2503 
Q 1469 2503 1303 2419 
Q 1178 2356 984 2169 
z
" transform="scale(0.015625)"/>
       <path id="TimesNewRomanPSMT-56" d="M 4544 4238 
L 4544 4122 
Q 4319 4081 4203 3978 
Q 4038 3825 3909 3509 
L 2431 -97 
L 2316 -97 
L 728 3556 
Q 606 3838 556 3900 
Q 478 3997 364 4051 
Q 250 4106 56 4122 
L 56 4238 
L 1788 4238 
L 1788 4122 
Q 1494 4094 1406 4022 
Q 1319 3950 1319 3838 
Q 1319 3681 1463 3350 
L 2541 866 
L 3541 3319 
Q 3688 3681 3688 3822 
Q 3688 3913 3597 3995 
Q 3506 4078 3291 4113 
Q 3275 4116 3238 4122 
L 3238 4238 
L 4544 4238 
z
" transform="scale(0.015625)"/>
       <path id="TimesNewRomanPSMT-41" d="M 2928 1419 
L 1288 1419 
L 1000 750 
Q 894 503 894 381 
Q 894 284 986 211 
Q 1078 138 1384 116 
L 1384 0 
L 50 0 
L 50 116 
Q 316 163 394 238 
Q 553 388 747 847 
L 2238 4334 
L 2347 4334 
L 3822 809 
Q 4000 384 4145 257 
Q 4291 131 4550 116 
L 4550 0 
L 2878 0 
L 2878 116 
Q 3131 128 3220 200 
Q 3309 272 3309 375 
Q 3309 513 3184 809 
L 2928 1419 
z
M 2841 1650 
L 2122 3363 
L 1384 1650 
L 2841 1650 
z
" transform="scale(0.015625)"/>
       <path id="TimesNewRomanPSMT-63" d="M 2631 1088 
Q 2516 522 2178 217 
Q 1841 -88 1431 -88 
Q 944 -88 581 321 
Q 219 731 219 1428 
Q 219 2103 620 2525 
Q 1022 2947 1584 2947 
Q 2006 2947 2278 2723 
Q 2550 2500 2550 2259 
Q 2550 2141 2473 2067 
Q 2397 1994 2259 1994 
Q 2075 1994 1981 2113 
Q 1928 2178 1911 2362 
Q 1894 2547 1784 2644 
Q 1675 2738 1481 2738 
Q 1169 2738 978 2506 
Q 725 2200 725 1697 
Q 725 1184 976 792 
Q 1228 400 1656 400 
Q 1963 400 2206 609 
Q 2378 753 2541 1131 
L 2631 1088 
z
" transform="scale(0.015625)"/>
       <path id="TimesNewRomanPSMT-75" d="M 2709 2863 
L 2709 1128 
Q 2709 631 2732 520 
Q 2756 409 2807 365 
Q 2859 322 2928 322 
Q 3025 322 3147 375 
L 3191 266 
L 2334 -88 
L 2194 -88 
L 2194 519 
Q 1825 119 1631 15 
Q 1438 -88 1222 -88 
Q 981 -88 804 51 
Q 628 191 559 409 
Q 491 628 491 1028 
L 491 2306 
Q 491 2509 447 2587 
Q 403 2666 317 2708 
Q 231 2750 6 2747 
L 6 2863 
L 1009 2863 
L 1009 947 
Q 1009 547 1148 422 
Q 1288 297 1484 297 
Q 1619 297 1789 381 
Q 1959 466 2194 703 
L 2194 2325 
Q 2194 2569 2105 2655 
Q 2016 2741 1734 2747 
L 1734 2863 
L 2709 2863 
z
" transform="scale(0.015625)"/>
       <path id="TimesNewRomanPSMT-25" d="M 4350 4334 
L 1263 -175 
L 984 -175 
L 4072 4334 
L 4350 4334 
z
M 1138 4334 
Q 1559 4334 1792 3984 
Q 2025 3634 2025 3181 
Q 2025 2638 1762 2341 
Q 1500 2044 1131 2044 
Q 884 2044 678 2180 
Q 472 2316 348 2584 
Q 225 2853 225 3181 
Q 225 3509 350 3786 
Q 475 4063 692 4198 
Q 909 4334 1138 4334 
z
M 1128 4159 
Q 969 4159 845 3971 
Q 722 3784 722 3184 
Q 722 2750 791 2522 
Q 844 2350 956 2256 
Q 1022 2200 1119 2200 
Q 1269 2200 1375 2363 
Q 1531 2603 1531 3166 
Q 1531 3759 1378 4000 
Q 1278 4159 1128 4159 
z
M 4206 2103 
Q 4428 2103 4648 1962 
Q 4869 1822 4989 1553 
Q 5109 1284 5109 963 
Q 5109 409 4843 117 
Q 4578 -175 4216 -175 
Q 3988 -175 3773 -34 
Q 3559 106 3436 367 
Q 3313 628 3313 963 
Q 3313 1291 3436 1562 
Q 3559 1834 3773 1968 
Q 3988 2103 4206 2103 
z
M 4209 1938 
Q 4059 1938 3950 1769 
Q 3809 1550 3809 941 
Q 3809 381 3953 159 
Q 4059 0 4209 0 
Q 4353 0 4466 172 
Q 4616 400 4616 956 
Q 4616 1544 4466 1778 
Q 4363 1938 4209 1938 
z
" transform="scale(0.015625)"/>
      </defs>
      <use xlink:href="#TimesNewRomanPSMT-49"/>
      <use xlink:href="#TimesNewRomanPSMT-6e" x="33.300781"/>
      <use xlink:href="#TimesNewRomanPSMT-74" x="83.300781"/>
      <use xlink:href="#TimesNewRomanPSMT-65" x="111.083984"/>
      <use xlink:href="#TimesNewRomanPSMT-72" x="155.46875"/>
      <use xlink:href="#TimesNewRomanPSMT-76" x="188.769531"/>
      <use xlink:href="#TimesNewRomanPSMT-61" x="238.769531"/>
      <use xlink:href="#TimesNewRomanPSMT-6c" x="283.154297"/>
      <use xlink:href="#TimesNewRomanPSMT-20" x="310.9375"/>
      <use xlink:href="#TimesNewRomanPSMT-50" x="335.9375"/>
      <use xlink:href="#TimesNewRomanPSMT-72" x="391.552734"/>
      <use xlink:href="#TimesNewRomanPSMT-6f" x="424.853516"/>
      <use xlink:href="#TimesNewRomanPSMT-62" x="474.853516"/>
      <use xlink:href="#TimesNewRomanPSMT-65" x="524.853516"/>
      <use xlink:href="#TimesNewRomanPSMT-72" x="569.238281"/>
      <use xlink:href="#TimesNewRomanPSMT-20" x="602.539062"/>
      <use xlink:href="#TimesNewRomanPSMT-56" x="625.789062"/>
      <use xlink:href="#TimesNewRomanPSMT-61" x="686.880859"/>
      <use xlink:href="#TimesNewRomanPSMT-6c" x="731.265625"/>
      <use xlink:href="#TimesNewRomanPSMT-20" x="759.048828"/>
      <use xlink:href="#TimesNewRomanPSMT-41" x="778.548828"/>
      <use xlink:href="#TimesNewRomanPSMT-63" x="850.765625"/>
      <use xlink:href="#TimesNewRomanPSMT-63" x="895.150391"/>
      <use xlink:href="#TimesNewRomanPSMT-75" x="939.535156"/>
      <use xlink:href="#TimesNewRomanPSMT-72" x="989.535156"/>
      <use xlink:href="#TimesNewRomanPSMT-61" x="1022.835938"/>
      <use xlink:href="#TimesNewRomanPSMT-63" x="1067.220703"/>
      <use xlink:href="#TimesNewRomanPSMT-79" x="1111.605469"/>
      <use xlink:href="#TimesNewRomanPSMT-20" x="1161.605469"/>
      <use xlink:href="#TimesNewRomanPSMT-28" x="1186.605469"/>
      <use xlink:href="#TimesNewRomanPSMT-25" x="1219.90625"/>
      <use xlink:href="#TimesNewRomanPSMT-29" x="1303.207031"/>
     </g>
    </g>
   </g>
   <g id="LineCollection_1">
    <path d="M 99.894505 61.011985 
L 99.894505 38.686748 
" clip-path="url(#pd470c0f9a0)" style="fill: none; stroke: #000000; stroke-width: 2"/>
    <path d="M 172.493125 67.884782 
L 172.493125 36.613719 
" clip-path="url(#pd470c0f9a0)" style="fill: none; stroke: #000000; stroke-width: 2"/>
    <path d="M 245.091745 76.87772 
L 245.091745 50.359178 
" clip-path="url(#pd470c0f9a0)" style="fill: none; stroke: #000000; stroke-width: 2"/>
   </g>
   <g id="line2d_9">
    <defs>
     <path id="mc4bfde32bb" d="M 5 0 
L -5 -0 
" style="stroke: #000000"/>
    </defs>
    <g clip-path="url(#pd470c0f9a0)">
     <use xlink:href="#mc4bfde32bb" x="99.894505" y="61.011985" style="stroke: #000000"/>
     <use xlink:href="#mc4bfde32bb" x="172.493125" y="67.884782" style="stroke: #000000"/>
     <use xlink:href="#mc4bfde32bb" x="245.091745" y="76.87772" style="stroke: #000000"/>
    </g>
   </g>
   <g id="line2d_10">
    <g clip-path="url(#pd470c0f9a0)">
     <use xlink:href="#mc4bfde32bb" x="99.894505" y="38.686748" style="stroke: #000000"/>
     <use xlink:href="#mc4bfde32bb" x="172.493125" y="36.613719" style="stroke: #000000"/>
     <use xlink:href="#mc4bfde32bb" x="245.091745" y="50.359178" style="stroke: #000000"/>
    </g>
   </g>
   <g id="patch_6">
    <path d="M 60.69125 221.688109 
L 60.69125 27.36 
" style="fill: none; stroke: #000000; stroke-width: 0.8; stroke-linejoin: miter; stroke-linecap: square"/>
   </g>
   <g id="patch_7">
    <path d="M 284.295 221.688109 
L 284.295 27.36 
" style="fill: none; stroke: #000000; stroke-width: 0.8; stroke-linejoin: miter; stroke-linecap: square"/>
   </g>
   <g id="patch_8">
    <path d="M 60.69125 221.688109 
L 284.295 221.688109 
" style="fill: none; stroke: #000000; stroke-width: 0.8; stroke-linejoin: miter; stroke-linecap: square"/>
   </g>
   <g id="patch_9">
    <path d="M 60.69125 27.36 
L 284.295 27.36 
" style="fill: none; stroke: #000000; stroke-width: 0.8; stroke-linejoin: miter; stroke-linecap: square"/>
   </g>
  </g>
  <g id="axes_2">
   <g id="patch_10">
    <path d="M 339.43625 221.688109 
L 563.04 221.688109 
L 563.04 27.36 
L 339.43625 27.36 
L 339.43625 221.688109 
z
" style="fill: none"/>
   </g>
   <g id="patch_11">
    <path d="M 349.600057 221.688109 
L 407.678953 221.688109 
L 407.678953 69.917968 
L 349.600057 69.917968 
z
" clip-path="url(#p82d7879a39)" style="fill: #228b22; opacity: 0.7"/>
   </g>
   <g id="patch_12">
    <path d="M 422.198677 221.688109 
L 480.277573 221.688109 
L 480.277573 49.501374 
L 422.198677 49.501374 
z
" clip-path="url(#p82d7879a39)" style="fill: #9acd32; opacity: 0.7"/>
   </g>
   <g id="patch_13">
    <path d="M 494.797297 221.688109 
L 552.876193 221.688109 
L 552.876193 82.383448 
L 494.797297 82.383448 
z
" clip-path="url(#p82d7879a39)" style="fill: #a0522d; opacity: 0.7"/>
   </g>
   <g id="matplotlib.axis_3">
    <g id="xtick_4">
     <g id="line2d_11">
      <g>
       <use xlink:href="#md876d4c7a8" x="378.639505" y="221.688109" style="stroke: #000000; stroke-width: 0.8"/>
      </g>
     </g>
     <g id="text_10">
      <!-- w/ symmetry (K=4) -->
      <g transform="translate(337.077378 258.704145) rotate(-15) scale(0.11 -0.11)">
       <use xlink:href="#TimesNewRomanPSMT-77"/>
       <use xlink:href="#TimesNewRomanPSMT-2f" x="72.216797"/>
       <use xlink:href="#TimesNewRomanPSMT-20" x="100"/>
       <use xlink:href="#TimesNewRomanPSMT-73" x="125"/>
       <use xlink:href="#TimesNewRomanPSMT-79" x="163.916016"/>
       <use xlink:href="#TimesNewRomanPSMT-6d" x="213.916016"/>
       <use xlink:href="#TimesNewRomanPSMT-6d" x="291.699219"/>
       <use xlink:href="#TimesNewRomanPSMT-65" x="369.482422"/>
       <use xlink:href="#TimesNewRomanPSMT-74" x="413.867188"/>
       <use xlink:href="#TimesNewRomanPSMT-72" x="441.650391"/>
       <use xlink:href="#TimesNewRomanPSMT-79" x="474.951172"/>
       <use xlink:href="#TimesNewRomanPSMT-20" x="524.951172"/>
       <use xlink:href="#TimesNewRomanPSMT-28" x="549.951172"/>
       <use xlink:href="#TimesNewRomanPSMT-4b" x="583.251953"/>
       <use xlink:href="#TimesNewRomanPSMT-3d" x="655.46875"/>
       <use xlink:href="#TimesNewRomanPSMT-34" x="711.865234"/>
       <use xlink:href="#TimesNewRomanPSMT-29" x="761.865234"/>
      </g>
     </g>
    </g>
    <g id="xtick_5">
     <g id="line2d_12">
      <g>
       <use xlink:href="#md876d4c7a8" x="451.238125" y="221.688109" style="stroke: #000000; stroke-width: 0.8"/>
      </g>
     </g>
     <g id="text_11">
      <!-- w/ symmetry (K=1) -->
      <g transform="translate(409.675998 258.704145) rotate(-15) scale(0.11 -0.11)">
       <use xlink:href="#TimesNewRomanPSMT-77"/>
       <use xlink:href="#TimesNewRomanPSMT-2f" x="72.216797"/>
       <use xlink:href="#TimesNewRomanPSMT-20" x="100"/>
       <use xlink:href="#TimesNewRomanPSMT-73" x="125"/>
       <use xlink:href="#TimesNewRomanPSMT-79" x="163.916016"/>
       <use xlink:href="#TimesNewRomanPSMT-6d" x="213.916016"/>
       <use xlink:href="#TimesNewRomanPSMT-6d" x="291.699219"/>
       <use xlink:href="#TimesNewRomanPSMT-65" x="369.482422"/>
       <use xlink:href="#TimesNewRomanPSMT-74" x="413.867188"/>
       <use xlink:href="#TimesNewRomanPSMT-72" x="441.650391"/>
       <use xlink:href="#TimesNewRomanPSMT-79" x="474.951172"/>
       <use xlink:href="#TimesNewRomanPSMT-20" x="524.951172"/>
       <use xlink:href="#TimesNewRomanPSMT-28" x="549.951172"/>
       <use xlink:href="#TimesNewRomanPSMT-4b" x="583.251953"/>
       <use xlink:href="#TimesNewRomanPSMT-3d" x="655.46875"/>
       <use xlink:href="#TimesNewRomanPSMT-31" x="711.865234"/>
       <use xlink:href="#TimesNewRomanPSMT-29" x="761.865234"/>
      </g>
     </g>
    </g>
    <g id="xtick_6">
     <g id="line2d_13">
      <g>
       <use xlink:href="#md876d4c7a8" x="523.836745" y="221.688109" style="stroke: #000000; stroke-width: 0.8"/>
      </g>
     </g>
     <g id="text_12">
      <!-- w/o symmetry -->
      <g transform="translate(493.973112 252.434941) rotate(-15) scale(0.11 -0.11)">
       <use xlink:href="#TimesNewRomanPSMT-77"/>
       <use xlink:href="#TimesNewRomanPSMT-2f" x="72.216797"/>
       <use xlink:href="#TimesNewRomanPSMT-6f" x="100"/>
       <use xlink:href="#TimesNewRomanPSMT-20" x="150"/>
       <use xlink:href="#TimesNewRomanPSMT-73" x="175"/>
       <use xlink:href="#TimesNewRomanPSMT-79" x="213.916016"/>
       <use xlink:href="#TimesNewRomanPSMT-6d" x="263.916016"/>
       <use xlink:href="#TimesNewRomanPSMT-6d" x="341.699219"/>
       <use xlink:href="#TimesNewRomanPSMT-65" x="419.482422"/>
       <use xlink:href="#TimesNewRomanPSMT-74" x="463.867188"/>
       <use xlink:href="#TimesNewRomanPSMT-72" x="491.650391"/>
       <use xlink:href="#TimesNewRomanPSMT-79" x="524.951172"/>
      </g>
     </g>
    </g>
   </g>
   <g id="matplotlib.axis_4">
    <g id="ytick_6">
     <g id="line2d_14">
      <g>
       <use xlink:href="#mb5331f9bd9" x="339.43625" y="221.688109" style="stroke: #000000; stroke-width: 0.8"/>
      </g>
     </g>
     <g id="text_13">
      <!-- 0.00 -->
      <g transform="translate(313.18625 225.507171) scale(0.11 -0.11)">
       <use xlink:href="#TimesNewRomanPSMT-30"/>
       <use xlink:href="#TimesNewRomanPSMT-2e" x="50"/>
       <use xlink:href="#TimesNewRomanPSMT-30" x="75"/>
       <use xlink:href="#TimesNewRomanPSMT-30" x="125"/>
      </g>
     </g>
    </g>
    <g id="ytick_7">
     <g id="line2d_15">
      <g>
       <use xlink:href="#mb5331f9bd9" x="339.43625" y="179.748173" style="stroke: #000000; stroke-width: 0.8"/>
      </g>
     </g>
     <g id="text_14">
      <!-- 0.05 -->
      <g transform="translate(313.18625 183.567235) scale(0.11 -0.11)">
       <use xlink:href="#TimesNewRomanPSMT-30"/>
       <use xlink:href="#TimesNewRomanPSMT-2e" x="50"/>
       <use xlink:href="#TimesNewRomanPSMT-30" x="75"/>
       <use xlink:href="#TimesNewRomanPSMT-35" x="125"/>
      </g>
     </g>
    </g>
    <g id="ytick_8">
     <g id="line2d_16">
      <g>
       <use xlink:href="#mb5331f9bd9" x="339.43625" y="137.808236" style="stroke: #000000; stroke-width: 0.8"/>
      </g>
     </g>
     <g id="text_15">
      <!-- 0.10 -->
      <g transform="translate(313.18625 141.627299) scale(0.11 -0.11)">
       <use xlink:href="#TimesNewRomanPSMT-30"/>
       <use xlink:href="#TimesNewRomanPSMT-2e" x="50"/>
       <use xlink:href="#TimesNewRomanPSMT-31" x="75"/>
       <use xlink:href="#TimesNewRomanPSMT-30" x="125"/>
      </g>
     </g>
    </g>
    <g id="ytick_9">
     <g id="line2d_17">
      <g>
       <use xlink:href="#mb5331f9bd9" x="339.43625" y="95.8683" style="stroke: #000000; stroke-width: 0.8"/>
      </g>
     </g>
     <g id="text_16">
      <!-- 0.15 -->
      <g transform="translate(313.18625 99.687363) scale(0.11 -0.11)">
       <use xlink:href="#TimesNewRomanPSMT-30"/>
       <use xlink:href="#TimesNewRomanPSMT-2e" x="50"/>
       <use xlink:href="#TimesNewRomanPSMT-31" x="75"/>
       <use xlink:href="#TimesNewRomanPSMT-35" x="125"/>
      </g>
     </g>
    </g>
    <g id="ytick_10">
     <g id="line2d_18">
      <g>
       <use xlink:href="#mb5331f9bd9" x="339.43625" y="53.928364" style="stroke: #000000; stroke-width: 0.8"/>
      </g>
     </g>
     <g id="text_17">
      <!-- 0.20 -->
      <g transform="translate(313.18625 57.747427) scale(0.11 -0.11)">
       <use xlink:href="#TimesNewRomanPSMT-30"/>
       <use xlink:href="#TimesNewRomanPSMT-2e" x="50"/>
       <use xlink:href="#TimesNewRomanPSMT-32" x="75"/>
       <use xlink:href="#TimesNewRomanPSMT-30" x="125"/>
      </g>
     </g>
    </g>
    <g id="text_18">
     <!-- Interval Prober Val Accuracy (%) -->
     <g transform="translate(306.381094 211.39757) rotate(-90) scale(0.13 -0.13)">
      <use xlink:href="#TimesNewRomanPSMT-49"/>
      <use xlink:href="#TimesNewRomanPSMT-6e" x="33.300781"/>
      <use xlink:href="#TimesNewRomanPSMT-74" x="83.300781"/>
      <use xlink:href="#TimesNewRomanPSMT-65" x="111.083984"/>
      <use xlink:href="#TimesNewRomanPSMT-72" x="155.46875"/>
      <use xlink:href="#TimesNewRomanPSMT-76" x="188.769531"/>
      <use xlink:href="#TimesNewRomanPSMT-61" x="238.769531"/>
      <use xlink:href="#TimesNewRomanPSMT-6c" x="283.154297"/>
      <use xlink:href="#TimesNewRomanPSMT-20" x="310.9375"/>
      <use xlink:href="#TimesNewRomanPSMT-50" x="335.9375"/>
      <use xlink:href="#TimesNewRomanPSMT-72" x="391.552734"/>
      <use xlink:href="#TimesNewRomanPSMT-6f" x="424.853516"/>
      <use xlink:href="#TimesNewRomanPSMT-62" x="474.853516"/>
      <use xlink:href="#TimesNewRomanPSMT-65" x="524.853516"/>
      <use xlink:href="#TimesNewRomanPSMT-72" x="569.238281"/>
      <use xlink:href="#TimesNewRomanPSMT-20" x="602.539062"/>
      <use xlink:href="#TimesNewRomanPSMT-56" x="625.789062"/>
      <use xlink:href="#TimesNewRomanPSMT-61" x="686.880859"/>
      <use xlink:href="#TimesNewRomanPSMT-6c" x="731.265625"/>
      <use xlink:href="#TimesNewRomanPSMT-20" x="759.048828"/>
      <use xlink:href="#TimesNewRomanPSMT-41" x="778.548828"/>
      <use xlink:href="#TimesNewRomanPSMT-63" x="850.765625"/>
      <use xlink:href="#TimesNewRomanPSMT-63" x="895.150391"/>
      <use xlink:href="#TimesNewRomanPSMT-75" x="939.535156"/>
      <use xlink:href="#TimesNewRomanPSMT-72" x="989.535156"/>
      <use xlink:href="#TimesNewRomanPSMT-61" x="1022.835938"/>
      <use xlink:href="#TimesNewRomanPSMT-63" x="1067.220703"/>
      <use xlink:href="#TimesNewRomanPSMT-79" x="1111.605469"/>
      <use xlink:href="#TimesNewRomanPSMT-20" x="1161.605469"/>
      <use xlink:href="#TimesNewRomanPSMT-28" x="1186.605469"/>
      <use xlink:href="#TimesNewRomanPSMT-25" x="1219.90625"/>
      <use xlink:href="#TimesNewRomanPSMT-29" x="1303.207031"/>
     </g>
    </g>
   </g>
   <g id="LineCollection_2">
    <path d="M 378.639505 77.957546 
L 378.639505 61.878391 
" clip-path="url(#p82d7879a39)" style="fill: none; stroke: #000000; stroke-width: 2"/>
    <path d="M 451.238125 62.389029 
L 451.238125 36.613719 
" clip-path="url(#p82d7879a39)" style="fill: none; stroke: #000000; stroke-width: 2"/>
    <path d="M 523.836745 93.887108 
L 523.836745 70.879788 
" clip-path="url(#p82d7879a39)" style="fill: none; stroke: #000000; stroke-width: 2"/>
   </g>
   <g id="line2d_19">
    <g clip-path="url(#p82d7879a39)">
     <use xlink:href="#mc4bfde32bb" x="378.639505" y="77.957546" style="stroke: #000000"/>
     <use xlink:href="#mc4bfde32bb" x="451.238125" y="62.389029" style="stroke: #000000"/>
     <use xlink:href="#mc4bfde32bb" x="523.836745" y="93.887108" style="stroke: #000000"/>
    </g>
   </g>
   <g id="line2d_20">
    <g clip-path="url(#p82d7879a39)">
     <use xlink:href="#mc4bfde32bb" x="378.639505" y="61.878391" style="stroke: #000000"/>
     <use xlink:href="#mc4bfde32bb" x="451.238125" y="36.613719" style="stroke: #000000"/>
     <use xlink:href="#mc4bfde32bb" x="523.836745" y="70.879788" style="stroke: #000000"/>
    </g>
   </g>
   <g id="patch_14">
    <path d="M 339.43625 221.688109 
L 339.43625 27.36 
" style="fill: none; stroke: #000000; stroke-width: 0.8; stroke-linejoin: miter; stroke-linecap: square"/>
   </g>
   <g id="patch_15">
    <path d="M 563.04 221.688109 
L 563.04 27.36 
" style="fill: none; stroke: #000000; stroke-width: 0.8; stroke-linejoin: miter; stroke-linecap: square"/>
   </g>
   <g id="patch_16">
    <path d="M 339.43625 221.688109 
L 563.04 221.688109 
" style="fill: none; stroke: #000000; stroke-width: 0.8; stroke-linejoin: miter; stroke-linecap: square"/>
   </g>
   <g id="patch_17">
    <path d="M 339.43625 27.36 
L 563.04 27.36 
" style="fill: none; stroke: #000000; stroke-width: 0.8; stroke-linejoin: miter; stroke-linecap: square"/>
   </g>
  </g>
  <g id="text_19">
   <!-- Train &amp; Val: 3 Keys -->
   <g transform="translate(100.855781 19.803281) scale(0.15 -0.15)">
    <defs>
     <path id="TimesNewRomanPSMT-54" d="M 3703 4238 
L 3750 3244 
L 3631 3244 
Q 3597 3506 3538 3619 
Q 3441 3800 3280 3886 
Q 3119 3972 2856 3972 
L 2259 3972 
L 2259 734 
Q 2259 344 2344 247 
Q 2463 116 2709 116 
L 2856 116 
L 2856 0 
L 1059 0 
L 1059 116 
L 1209 116 
Q 1478 116 1591 278 
Q 1659 378 1659 734 
L 1659 3972 
L 1150 3972 
Q 853 3972 728 3928 
Q 566 3869 450 3700 
Q 334 3531 313 3244 
L 194 3244 
L 244 4238 
L 3703 4238 
z
" transform="scale(0.015625)"/>
     <path id="TimesNewRomanPSMT-69" d="M 928 4444 
Q 1059 4444 1151 4351 
Q 1244 4259 1244 4128 
Q 1244 3997 1151 3903 
Q 1059 3809 928 3809 
Q 797 3809 703 3903 
Q 609 3997 609 4128 
Q 609 4259 701 4351 
Q 794 4444 928 4444 
z
M 1188 2947 
L 1188 647 
Q 1188 378 1227 289 
Q 1266 200 1342 156 
Q 1419 113 1622 113 
L 1622 0 
L 231 0 
L 231 113 
Q 441 113 512 153 
Q 584 194 626 287 
Q 669 381 669 647 
L 669 1750 
Q 669 2216 641 2353 
Q 619 2453 572 2492 
Q 525 2531 444 2531 
Q 356 2531 231 2484 
L 188 2597 
L 1050 2947 
L 1188 2947 
z
" transform="scale(0.015625)"/>
     <path id="TimesNewRomanPSMT-26" d="M 3266 2728 
L 4578 2728 
L 4578 2613 
Q 4306 2591 4176 2492 
Q 4047 2394 3772 1897 
Q 3497 1400 3153 969 
Q 3431 644 3650 514 
Q 3869 384 4091 384 
Q 4306 384 4456 501 
Q 4606 619 4669 847 
L 4784 763 
Q 4669 322 4412 112 
Q 4156 -97 3816 -97 
Q 3559 -97 3295 42 
Q 3031 181 2719 513 
Q 2331 169 2020 36 
Q 1709 -97 1356 -97 
Q 841 -97 537 178 
Q 234 453 234 834 
Q 234 1213 506 1589 
Q 778 1966 1528 2369 
Q 1381 2694 1328 2901 
Q 1275 3109 1275 3300 
Q 1275 3834 1669 4116 
Q 1975 4334 2366 4334 
Q 2738 4334 2972 4114 
Q 3206 3894 3206 3572 
Q 3206 3241 2979 2991 
Q 2753 2741 2178 2444 
Q 2575 1738 3006 1150 
Q 3556 1806 3556 2256 
Q 3556 2400 3463 2513 
Q 3394 2597 3266 2613 
L 3266 2728 
z
M 2072 2647 
Q 2459 2831 2651 3065 
Q 2844 3300 2844 3588 
Q 2844 3813 2705 3959 
Q 2566 4106 2359 4106 
Q 2088 4106 1948 3917 
Q 1809 3728 1809 3547 
Q 1809 3394 1862 3205 
Q 1916 3016 2072 2647 
z
M 2556 694 
Q 2144 1256 1984 1515 
Q 1825 1775 1634 2159 
Q 1259 1944 1070 1684 
Q 881 1425 881 1122 
Q 881 788 1097 534 
Q 1313 281 1678 281 
Q 1875 281 2058 359 
Q 2241 438 2556 694 
z
" transform="scale(0.015625)"/>
     <path id="TimesNewRomanPSMT-3a" d="M 903 2950 
Q 1047 2950 1148 2848 
Q 1250 2747 1250 2603 
Q 1250 2459 1148 2357 
Q 1047 2256 903 2256 
Q 759 2256 657 2357 
Q 556 2459 556 2603 
Q 556 2747 657 2848 
Q 759 2950 903 2950 
z
M 897 609 
Q 1044 609 1145 506 
Q 1247 403 1247 259 
Q 1247 116 1144 14 
Q 1041 -88 897 -88 
Q 753 -88 651 14 
Q 550 116 550 259 
Q 550 403 651 506 
Q 753 609 897 609 
z
" transform="scale(0.015625)"/>
     <path id="TimesNewRomanPSMT-33" d="M 325 3431 
Q 506 3859 782 4092 
Q 1059 4325 1472 4325 
Q 1981 4325 2253 3994 
Q 2459 3747 2459 3466 
Q 2459 3003 1878 2509 
Q 2269 2356 2469 2072 
Q 2669 1788 2669 1403 
Q 2669 853 2319 450 
Q 1863 -75 997 -75 
Q 569 -75 414 31 
Q 259 138 259 259 
Q 259 350 332 419 
Q 406 488 509 488 
Q 588 488 669 463 
Q 722 447 909 348 
Q 1097 250 1169 231 
Q 1284 197 1416 197 
Q 1734 197 1970 444 
Q 2206 691 2206 1028 
Q 2206 1275 2097 1509 
Q 2016 1684 1919 1775 
Q 1784 1900 1550 2001 
Q 1316 2103 1072 2103 
L 972 2103 
L 972 2197 
Q 1219 2228 1467 2375 
Q 1716 2522 1828 2728 
Q 1941 2934 1941 3181 
Q 1941 3503 1739 3701 
Q 1538 3900 1238 3900 
Q 753 3900 428 3381 
L 325 3431 
z
" transform="scale(0.015625)"/>
    </defs>
    <use xlink:href="#TimesNewRomanPSMT-54"/>
    <use xlink:href="#TimesNewRomanPSMT-72" x="57.583984"/>
    <use xlink:href="#TimesNewRomanPSMT-61" x="90.884766"/>
    <use xlink:href="#TimesNewRomanPSMT-69" x="135.269531"/>
    <use xlink:href="#TimesNewRomanPSMT-6e" x="163.052734"/>
    <use xlink:href="#TimesNewRomanPSMT-20" x="213.052734"/>
    <use xlink:href="#TimesNewRomanPSMT-26" x="238.052734"/>
    <use xlink:href="#TimesNewRomanPSMT-20" x="315.835938"/>
    <use xlink:href="#TimesNewRomanPSMT-56" x="339.085938"/>
    <use xlink:href="#TimesNewRomanPSMT-61" x="400.177734"/>
    <use xlink:href="#TimesNewRomanPSMT-6c" x="444.5625"/>
    <use xlink:href="#TimesNewRomanPSMT-3a" x="472.345703"/>
    <use xlink:href="#TimesNewRomanPSMT-20" x="500.128906"/>
    <use xlink:href="#TimesNewRomanPSMT-33" x="525.128906"/>
    <use xlink:href="#TimesNewRomanPSMT-20" x="575.128906"/>
    <use xlink:href="#TimesNewRomanPSMT-4b" x="600.128906"/>
    <use xlink:href="#TimesNewRomanPSMT-65" x="672.345703"/>
    <use xlink:href="#TimesNewRomanPSMT-79" x="716.730469"/>
    <use xlink:href="#TimesNewRomanPSMT-73" x="766.730469"/>
   </g>
  </g>
  <g id="text_20">
   <!-- Train &amp; Val: 6 Keys -->
   <g transform="translate(360.055781 19.803281) scale(0.15 -0.15)">
    <defs>
     <path id="TimesNewRomanPSMT-36" d="M 2869 4325 
L 2869 4209 
Q 2456 4169 2195 4045 
Q 1934 3922 1679 3669 
Q 1425 3416 1258 3105 
Q 1091 2794 978 2366 
Q 1428 2675 1881 2675 
Q 2316 2675 2634 2325 
Q 2953 1975 2953 1425 
Q 2953 894 2631 456 
Q 2244 -75 1606 -75 
Q 1172 -75 869 213 
Q 275 772 275 1663 
Q 275 2231 503 2743 
Q 731 3256 1154 3653 
Q 1578 4050 1965 4187 
Q 2353 4325 2688 4325 
L 2869 4325 
z
M 925 2138 
Q 869 1716 869 1456 
Q 869 1156 980 804 
Q 1091 453 1309 247 
Q 1469 100 1697 100 
Q 1969 100 2183 356 
Q 2397 613 2397 1088 
Q 2397 1622 2184 2012 
Q 1972 2403 1581 2403 
Q 1463 2403 1327 2353 
Q 1191 2303 925 2138 
z
" transform="scale(0.015625)"/>
    </defs>
    <use xlink:href="#TimesNewRomanPSMT-54"/>
    <use xlink:href="#TimesNewRomanPSMT-72" x="57.583984"/>
    <use xlink:href="#TimesNewRomanPSMT-61" x="90.884766"/>
    <use xlink:href="#TimesNewRomanPSMT-69" x="135.269531"/>
    <use xlink:href="#TimesNewRomanPSMT-6e" x="163.052734"/>
    <use xlink:href="#TimesNewRomanPSMT-20" x="213.052734"/>
    <use xlink:href="#TimesNewRomanPSMT-26" x="238.052734"/>
    <use xlink:href="#TimesNewRomanPSMT-20" x="315.835938"/>
    <use xlink:href="#TimesNewRomanPSMT-56" x="339.085938"/>
    <use xlink:href="#TimesNewRomanPSMT-61" x="400.177734"/>
    <use xlink:href="#TimesNewRomanPSMT-6c" x="444.5625"/>
    <use xlink:href="#TimesNewRomanPSMT-3a" x="472.345703"/>
    <use xlink:href="#TimesNewRomanPSMT-20" x="500.128906"/>
    <use xlink:href="#TimesNewRomanPSMT-36" x="525.128906"/>
    <use xlink:href="#TimesNewRomanPSMT-20" x="575.128906"/>
    <use xlink:href="#TimesNewRomanPSMT-4b" x="600.128906"/>
    <use xlink:href="#TimesNewRomanPSMT-65" x="672.345703"/>
    <use xlink:href="#TimesNewRomanPSMT-79" x="716.730469"/>
    <use xlink:href="#TimesNewRomanPSMT-73" x="766.730469"/>
   </g>
  </g>
 </g>
 <defs>
  <clipPath id="pd470c0f9a0">
   <rect x="60.69125" y="27.36" width="223.60375" height="194.328109"/>
  </clipPath>
  <clipPath id="p82d7879a39">
   <rect x="339.43625" y="27.36" width="223.60375" height="194.328109"/>
  </clipPath>
 </defs>
</svg>
